# xmcd
#
# Track frame offsets:
#	150
#	13170
#	24225
#	37777
#	52720
#	65467
#	75300
#	88522
#	101045
#	112542
#	126265
#	140085
#	151645
#	165410
#	180950
#	194080
#	207182
#	219545
# Disc length: 3078 seconds
# Revision: 8
# Processed by: cddbd v1.5.2PL0 Copyright (c) Steve Scherf et al.
#
# Submitted via: libkcddb 0.21
#
DISCID=d70c0412
DTITLE=Comedian Harmonists - Ihre großen Erfolge
DYEAR=1998
DGENRE=A Cappella
TTITLE0=Wir sind von Kopf bis Fuß auf Liebe eingestellt
TTITLE1=Ich küsse Ihre Hand, Madame
TTITLE2=Heute Nacht oder nie
TTITLE3=Gitarren, spielt auf
TTITLE4=Hoppla, jetzt komm' ich
TTITLE5=Ein Lied geht um die Welt
TTITLE6=Wenn die Sonja russisch tanzt
TTITLE7=Maskenball im Gänsestall
TTITLE8=Ich wollt', ich wär' ein Huhn
TTITLE9=Kannst du pfeifen, Johanna
TTITLE10=Fünf-Uhr-Tee bei Familie Kraus
TTITLE11=Wenn ich vergnügt bin, muss ich singen
TTITLE12=In der Bar zum Krokodil
TTITLE13=Heut' Nacht hab' ich geträumt von dir
TTITLE14=Kleiner Mann, was nun
TTITLE15=Bin kein Hauptmann, bin kein großes Tier
TTITLE16=Guten Tag, gnädige Frau
TTITLE17=Was dein roter Mund im Frühling sagt
EXTD=(Delta Music | EMI 1998) (4 006408 161738) (16173/1)
EXTT0=
EXTT1=
EXTT2=
EXTT3=
EXTT4=
EXTT5=
EXTT6=
EXTT7=
EXTT8=
EXTT9=
EXTT10=
EXTT11=
EXTT12=
EXTT13=
EXTT14=
EXTT15=
EXTT16=
EXTT17=
PLAYORDER=
